<svg width="92" height="104" viewBox="0 0 92 104" fill="none" xmlns="http://www.w3.org/2000/svg">
<rect width="9.83213" height="45.0406" rx="4.91607" transform="matrix(-0.999993 0.00368795 0.00368795 0.999993 53.7547 51.9818)" fill="#50B0A7"/>
<rect width="7.83286" height="44.3619" rx="3.91643" transform="matrix(-0.999993 0.00368795 0.00368795 0.999993 53.8906 51.1642)" fill="black"/>
<ellipse rx="21.9499" ry="27.217" transform="matrix(-0.99573 0.0923187 0.0380618 0.999275 46.9902 45.4088)" fill="#50B0A7"/>
<ellipse rx="21.9499" ry="27.6784" transform="matrix(-0.99573 0.0923187 0.0380618 0.999275 49.7179 45.3255)" fill="#F5455C"/>
<path d="M37.6917 46.7572C37.9818 35.021 44.7912 23.5068 42.7502 23.4563C40.7091 23.4059 34.217 33.0388 32.8683 44.7781C31.5196 56.5174 39.6586 65.9064 41.6997 65.9569C43.7408 66.0073 37.4016 58.4934 37.6917 46.7572Z" fill="white"/>
</svg>
