<?xml version="1.0" standalone="no"?>
<!DOCTYPE svg PUBLIC "-//W3C//DTD SVG 20010904//EN"
 "http://www.w3.org/TR/2001/REC-SVG-20010904/DTD/svg10.dtd">
<svg version="1.0" xmlns="http://www.w3.org/2000/svg"
 width="600.000000pt" height="600.000000pt" viewBox="0 0 600.000000 600.000000"
 preserveAspectRatio="xMidYMid meet">
<metadata>
Created by potrace 1.14, written by Peter Selinger 2001-2017
</metadata>
<g transform="translate(0.000000,600.000000) scale(0.100000,-0.100000)"
fill="#000000" stroke="none">
<path d="M2674 5761 c-2 -3 -14 -6 -26 -8 -68 -10 -174 -86 -221 -156 -47 -70
-66 -139 -62 -223 3 -92 15 -131 58 -196 76 -113 197 -177 330 -173 53 2 167
34 167 47 0 4 6 8 13 8 22 0 103 82 134 135 39 67 52 123 48 209 -3 78 -16
120 -53 180 -51 82 -155 156 -242 172 -44 8 -139 11 -146 5z"/>
<path d="M4210 4333 c-64 -7 -274 -62 -354 -93 -307 -119 -587 -334 -780 -598
-25 -34 -46 -67 -46 -72 0 -6 -3 -10 -8 -10 -4 0 -12 -9 -17 -19 -6 -11 -30
-57 -53 -102 -93 -175 -126 -299 -126 -484 -1 -154 27 -271 96 -410 28 -56 86
-154 98 -165 3 -3 26 -32 52 -66 l47 -61 -42 -49 c-23 -27 -53 -62 -67 -78
-38 -45 -163 -189 -175 -202 -5 -6 -30 -35 -55 -65 -25 -29 -69 -80 -98 -114
-91 -103 -112 -184 -72 -274 36 -78 106 -123 193 -124 85 -1 126 25 222 137
28 33 55 64 60 70 6 6 62 72 125 146 63 74 127 147 143 162 15 15 27 29 27 32
0 8 54 66 62 66 4 0 38 -19 75 -43 76 -48 177 -98 238 -117 22 -7 51 -17 65
-21 86 -30 278 -34 385 -9 84 20 222 66 241 81 6 5 13 7 16 4 3 -3 11 1 18 10
7 8 21 15 31 15 11 0 19 4 19 8 0 4 25 23 55 41 30 18 55 37 55 42 0 5 5 9 10
9 29 0 345 321 419 425 85 121 195 345 216 441 2 10 8 34 14 52 5 17 8 32 6
32 -3 0 0 11 5 24 37 97 46 431 15 546 -2 8 -6 31 -9 51 -8 51 -72 245 -86
259 -3 3 -18 30 -34 60 -59 111 -172 241 -266 306 -86 59 -229 124 -305 137
-17 3 -41 9 -55 13 -28 7 -305 13 -360 7z"/>
<path d="M1348 3775 c-2 -1 -28 -5 -58 -8 -103 -11 -173 -31 -276 -78 -65 -30
-178 -109 -205 -143 -9 -12 -30 -35 -45 -51 -108 -114 -192 -301 -232 -515
-16 -84 -19 -139 -17 -280 1 -96 5 -186 9 -200 3 -14 8 -38 10 -55 18 -127 93
-346 158 -460 16 -27 32 -58 35 -67 3 -10 9 -18 14 -18 5 0 9 -6 9 -13 0 -20
127 -183 197 -252 80 -79 192 -155 283 -193 46 -19 105 -40 113 -40 4 0 20 -3
35 -6 67 -14 92 -16 167 -17 72 0 130 5 190 16 11 2 20 4 20 5 0 1 9 3 20 5
38 5 70 13 113 28 31 11 44 12 49 3 4 -6 72 -139 151 -296 79 -157 154 -300
165 -318 13 -18 44 -44 74 -58 44 -22 61 -25 104 -20 77 10 134 52 162 123 30
77 21 106 -148 440 -151 299 -155 308 -136 323 11 8 41 31 68 50 70 52 156
134 202 193 57 74 116 199 136 287 25 111 28 308 6 406 -20 87 -50 190 -61
214 -4 8 -27 62 -51 120 -24 58 -54 123 -66 145 -13 22 -27 50 -33 63 -5 13
-21 38 -35 56 -14 18 -25 38 -25 44 0 7 -4 12 -10 12 -5 0 -16 12 -24 28 -18
34 -164 185 -231 239 -59 47 -190 133 -203 133 -5 0 -20 8 -33 19 -13 10 -35
22 -48 26 -13 4 -40 14 -60 23 -20 9 -39 17 -43 18 -5 1 -10 3 -13 4 -8 4 -17
7 -53 15 -18 4 -35 12 -38 16 -3 5 -9 7 -13 5 -4 -3 -25 -1 -47 5 -69 16 -275
34 -286 24z"/>
</g>
</svg>
